HIERARCHY
ROOT hip
{
	OFFSET 0.000000 0.000000 0.000000
	CHANNELS 6 Xposition Yposition Zposition Xrotation Zrotation Yrotation 
	JOINT abdomen
	{
		OFFSET 0.000000 3.422050 0.000000
		CHANNELS 3 Xrotation Zrotation Yrotation 
		JOINT chest
		{
			OFFSET 0.000000 8.486693 -0.684411
			CHANNELS 3 Xrotation Zrotation Yrotation 
			JOINT neck
			{
				OFFSET 0.000000 10.266162 -0.273764
				CHANNELS 3 Xrotation Zrotation Yrotation 
				JOINT head
				{
					OFFSET 0.000000 3.148285 0.000000
					CHANNELS 3 Xrotation Zrotation Yrotation 
					End Site
					{
						OFFSET 0.000000 3.148289 0.000000
					}
				}
			}
			JOINT lCollar
			{
				OFFSET 3.422053 6.707223 -0.821293
				CHANNELS 3 Yrotation Zrotation Xrotation 
				JOINT lShldr
				{
					OFFSET 3.285171 0.000000 0.000000
					CHANNELS 3 Zrotation Yrotation Xrotation 
					JOINT lForeArm
					{
						OFFSET 10.129278 0.000000 0.000000
						CHANNELS 3 Yrotation Zrotation Xrotation 
						JOINT lHand
						{
							OFFSET 8.486692 0.000000 0.000000
							CHANNELS 3 Zrotation Yrotation Xrotation 
							End Site
							{
								OFFSET 4.106464 0.000000 0.000000
							}
						}
					}
				}
			}
			JOINT rCollar
			{
				OFFSET -3.558935 6.707223 -0.821293
				CHANNELS 3 Yrotation Zrotation Xrotation 
				JOINT rShldr
				{
					OFFSET -3.148289 0.000000 0.000000
					CHANNELS 3 Zrotation Yrotation Xrotation 
					JOINT rForeArm
					{
						OFFSET -10.266159 0.000000 0.000000
						CHANNELS 3 Yrotation Zrotation Xrotation 
						JOINT rHand
						{
							OFFSET -8.349810 0.000000 0.000000
							CHANNELS 3 Zrotation Yrotation Xrotation 
							End Site
							{
								OFFSET -4.106464 0.000000 0.000000
							}
						}
					}
				}
			}
		}
	}
	JOINT lThigh
	{
		OFFSET 5.338403 -1.642589 1.368821
		CHANNELS 3 Xrotation Zrotation Yrotation 
		JOINT lShin
		{
			OFFSET -2.053232 -20.121670 0.000000
			CHANNELS 3 Xrotation Zrotation Yrotation 
			JOINT lFoot
			{
				OFFSET 0.000000 -19.300380 -1.231939
				CHANNELS 3 Xrotation Yrotation Zrotation 
				End Site
				{
					OFFSET 0.000000 -2.463878 4.653993
				}
			}
		}
	}
	JOINT rThigh
	{
		OFFSET -5.338403 -1.642589 1.368821
		CHANNELS 3 Xrotation Zrotation Yrotation 
		JOINT rShin
		{
			OFFSET 2.053232 -20.121670 0.000000
			CHANNELS 3 Xrotation Zrotation Yrotation 
			JOINT rFoot
			{
				OFFSET 0.000000 -19.300380 -1.231939
				CHANNELS 3 Xrotation Yrotation Zrotation 
				End Site
				{
					OFFSET 0.000000 -2.463878 4.653993
				}
			}
		}
	}
}
MOTION
Frames: 18
Frame Time: 0.033264
0.000000 43.528500 0.000000 0.000000 0.000000 0.000000 0.000000 0.000000 0.000000 0.000000 0.000000 0.000000 0.000000 0.000000 0.000000 0.000000 0.000000 0.000000 0.000000 0.000000 0.000000 0.000000 0.000000 0.000000 0.000000 0.000000 0.000000 0.000000 0.000000 0.000000 0.000000 0.000000 0.000000 0.000000 0.000000 0.000000 0.000000 0.000000 0.000000 0.000000 0.000000 0.000000 0.000000 0.000000 0.000000 0.000000 0.000000 0.000000 0.000000 0.000000 0.000000 0.000000 0.000000 0.000000 0.000000 0.000000 0.000000 0.000000 0.000000 0.000000 
0.000000 6.459362 0.000000 -90.001343 -0.002114 46.999653 -0.659064 -0.139722 -28.401102 -0.812227 0.188990 -21.020029 18.584288 -6.333884 -20.675266 -11.263663 1.467625 -0.244891 2.790642 -28.388256 0.613955 -54.482666 -46.819626 13.176122 -10.213921 -50.056503 18.235022 -27.695942 -8.903371 7.859488 -2.070436 -20.943953 -6.694089 -28.857573 3.356458 -5.664369 -166.351227 -70.714798 60.107258 6.996825 0.000000 0.000000 -17.390663 14.048954 -0.895770 15.212471 -6.428585 -0.433561 13.611595 2.328721 5.489282 -5.258473 -11.285510 -24.249664 57.715637 4.734636 -0.412670 23.422083 -1.952469 -4.545708 
0.000000 6.459362 0.000000 -90.001343 -0.002114 46.999653 -0.659064 -0.139722 -28.401104 -0.812227 0.188990 -21.020029 18.574493 -6.165070 -20.664318 -11.260813 1.889275 -0.242347 2.790642 -28.388256 0.613955 -54.482666 -46.819626 13.176122 -10.211453 -49.347507 18.231794 -27.695944 -8.903372 7.859488 -2.070436 -20.943953 -6.694089 -28.857573 3.356458 -5.664369 -166.351227 -70.714798 60.107258 6.996825 0.000000 0.000000 -17.465975 13.965173 -1.221190 15.212471 -6.428586 -0.433561 13.611595 2.328721 5.489282 -5.258473 -11.285510 -24.249664 57.715637 4.734636 -0.412670 23.422083 -1.952469 -4.545708 
0.000000 6.459362 0.000000 -90.001343 -0.002114 46.999653 -0.659065 -0.139722 -28.401102 -0.812227 0.188990 -21.020029 18.564726 -5.996228 -20.653395 -11.257936 2.311301 -0.239779 2.790642 -28.388256 0.613955 -54.482666 -46.819626 13.176122 -10.208961 -48.636841 18.228567 -27.695944 -8.903372 7.859488 -2.070436 -20.943953 -6.694089 -28.857576 3.356458 -5.664370 -166.351227 -70.714798 60.107258 6.996825 0.000000 0.000000 -17.540823 13.880915 -1.546617 15.212472 -6.428585 -0.433561 13.611596 2.328721 5.489283 -5.258474 -11.285510 -24.249668 57.715637 4.734636 -0.412670 23.422083 -1.952469 -4.545708 
0.000000 6.459362 0.000000 -90.001343 -0.002114 46.999653 -0.659064 -0.139722 -28.401104 -0.812227 0.188990 -21.020029 18.554993 -5.827359 -20.642502 -11.255041 2.733695 -0.237187 2.790642 -28.388258 0.613955 -54.482674 -46.819633 13.176126 -10.206437 -47.924534 18.225334 -27.695944 -8.903372 7.859488 -2.070436 -20.943953 -6.694089 -28.857573 3.356458 -5.664369 -166.351227 -70.714813 60.107277 6.996825 0.000000 0.000000 -17.615206 13.796184 -1.872047 15.212471 -6.428586 -0.433561 13.611595 2.328721 5.489282 -5.258474 -11.285511 -24.249666 57.715637 4.734636 -0.412670 23.422085 -1.952469 -4.545709 
0.000000 6.459362 0.000000 -90.001343 -0.002116 46.999653 -0.659064 -0.139722 -28.401102 -0.812227 0.188990 -21.020031 18.545300 -5.658468 -20.631645 -11.252119 3.156442 -0.234571 2.790642 -28.388258 0.613955 -54.482674 -46.819633 13.176123 -10.203886 -47.210629 18.222090 -27.695942 -8.903371 7.859488 -2.070436 -20.943954 -6.694089 -28.857576 3.356458 -5.664369 -166.351242 -70.714806 60.107258 6.996825 0.000000 0.000000 -17.689119 13.710988 -2.197474 15.212471 -6.428585 -0.433561 13.611595 2.328721 5.489282 -5.258474 -11.285511 -24.249666 57.715645 4.734637 -0.412670 23.422083 -1.952469 -4.545709 
0.000000 6.459362 0.000000 -90.001350 -0.002112 46.999653 -0.659065 -0.139722 -28.401104 -0.812227 0.188990 -21.020031 18.535631 -5.489552 -20.620811 -11.249177 3.579534 -0.231929 2.790642 -28.388258 0.613955 -54.482666 -46.819626 13.176122 -10.201302 -46.495178 18.218834 -27.695946 -8.903372 7.859488 -2.070436 -20.943956 -6.694089 -28.857573 3.356458 -5.664369 -166.351242 -70.714813 60.107269 6.996826 0.000000 0.000000 -17.762554 13.625321 -2.522893 15.212471 -6.428586 -0.433561 13.611595 2.328721 5.489282 -5.258473 -11.285511 -24.249668 57.715637 4.734637 -0.412670 23.422083 -1.952469 -4.545709 
0.000000 6.459362 0.000000 -90.001343 -0.002114 46.999653 -0.659064 -0.139722 -28.401098 -0.812227 0.188990 -21.020029 18.526003 -5.320613 -20.610012 -11.246212 4.002958 -0.229263 2.790642 -28.388256 0.613955 -54.482662 -46.819626 13.176120 -10.198685 -45.778217 18.215563 -27.695942 -8.903370 7.859487 -2.070436 -20.943951 -6.694089 -28.857573 3.356458 -5.664369 -166.351227 -70.714798 60.107258 6.996825 0.000000 0.000000 -17.835508 13.539198 -2.848300 15.212469 -6.428585 -0.433561 13.611595 2.328721 5.489282 -5.258473 -11.285509 -24.249662 57.715633 4.734636 -0.412670 23.422081 -1.952469 -4.545708 
0.000000 6.459362 0.000000 -90.001343 -0.002114 46.999653 -0.659064 -0.139722 -28.401100 -0.812227 0.188990 -21.020027 18.516407 -5.151654 -20.599245 -11.243222 4.426704 -0.226571 2.790642 -28.388256 0.613955 -54.482666 -46.819622 13.176123 -10.196036 -45.059826 18.212282 -27.695942 -8.903370 7.859487 -2.070436 -20.943953 -6.694089 -28.857573 3.356458 -5.664368 -166.351227 -70.714790 60.107258 6.996825 0.000000 0.000000 -17.907982 13.452615 -3.173689 15.212469 -6.428585 -0.433561 13.611595 2.328721 5.489282 -5.258472 -11.285509 -24.249662 57.715637 4.734636 -0.412670 23.422081 -1.952469 -4.545707 
0.000000 6.459362 0.000000 -90.001343 -0.002112 46.999653 -0.659064 -0.139722 -28.401102 -0.812227 0.188990 -21.020029 18.506844 -4.982673 -20.588505 -11.240208 4.850761 -0.223853 2.790642 -28.388254 0.613955 -54.482666 -46.819626 13.176122 -10.193361 -44.340038 18.208994 -27.695942 -8.903370 7.859487 -2.070436 -20.943953 -6.694089 -28.857573 3.356458 -5.664369 -166.351227 -70.714790 60.107258 6.996824 0.000000 0.000000 -17.979967 13.365576 -3.499055 15.212469 -6.428585 -0.433561 13.611595 2.328721 5.489282 -5.258472 -11.285509 -24.249664 57.715637 4.734636 -0.412670 23.422081 -1.952469 -4.545708 
0.000000 6.459362 0.000000 -90.001343 -0.002114 46.999653 -0.659064 -0.139722 -28.401102 -0.812227 0.188990 -21.020029 18.497311 -4.813670 -20.577793 -11.237169 5.275116 -0.221109 2.790642 -28.388254 0.613955 -54.482666 -46.819626 13.176122 -10.190655 -43.618916 18.205692 -27.695942 -8.903371 7.859488 -2.070436 -20.943953 -6.694089 -28.857573 3.356457 -5.664369 -166.351227 -70.714798 60.107258 6.996825 0.000000 0.000000 -18.051460 13.278087 -3.824394 15.212471 -6.428585 -0.433561 13.611595 2.328721 5.489282 -5.258473 -11.285510 -24.249664 57.715633 4.734636 -0.412670 23.422083 -1.952469 -4.545708 
0.000000 6.459362 0.000000 -90.001335 -0.002116 46.999653 -0.659064 -0.139722 -28.401102 -0.812227 0.188990 -21.020027 18.487816 -4.644649 -20.567118 -11.234107 5.699759 -0.218338 2.790642 -28.388256 0.613955 -54.482666 -46.819626 13.176122 -10.187920 -42.896496 18.202366 -27.695942 -8.903371 7.859488 -2.070436 -20.943953 -6.694089 -28.857573 3.356458 -5.664369 -166.351227 -70.714798 60.107258 6.996825 0.000000 0.000000 -18.122465 13.190153 -4.149703 15.212471 -6.428585 -0.433561 13.611595 2.328721 5.489282 -5.258473 -11.285510 -24.249662 57.715637 4.734636 -0.412670 23.422083 -1.952469 -4.545708 
0.000000 6.459362 0.000000 -90.001343 -0.002114 46.999653 -0.659064 -0.139722 -28.401102 -0.812227 0.188990 -21.020029 18.478350 -4.475606 -20.556461 -11.231020 6.124680 -0.215541 2.790642 -28.388256 0.613955 -54.482666 -46.819626 13.176122 -10.185156 -42.172863 18.199041 -27.695942 -8.903371 7.859488 -2.070436 -20.943953 -6.694089 -28.857573 3.356458 -5.664369 -166.351227 -70.714798 60.107258 6.996825 0.000000 0.000000 -18.192966 13.101771 -4.474972 15.212471 -6.428585 -0.433561 13.611595 2.328721 5.489282 -5.258473 -11.285510 -24.249664 57.715637 4.734636 -0.412670 23.422083 -1.952469 -4.545708 
0.000000 6.459362 0.000000 -90.001343 -0.002114 46.999653 -0.659064 -0.139722 -28.401102 -0.812227 0.188990 -21.020029 18.468920 -4.306547 -20.545839 -11.227904 6.549861 -0.212716 2.790642 -28.388256 0.613955 -54.482674 -46.819626 13.176124 -10.182358 -41.448036 18.195688 -27.695942 -8.903371 7.859488 -2.070436 -20.943953 -6.694089 -28.857573 3.356458 -5.664369 -166.351227 -70.714798 60.107258 6.996825 0.000000 0.000000 -18.262968 13.012955 -4.800200 15.212471 -6.428585 -0.433561 13.611595 2.328721 5.489282 -5.258473 -11.285510 -24.249664 57.715637 4.734636 -0.412670 23.422083 -1.952469 -4.545708 
0.000000 6.459362 0.000000 -90.001343 -0.002114 46.999653 -0.659064 -0.139722 -28.401102 -0.812227 0.188990 -21.020029 18.459517 -4.137469 -20.535248 -11.224768 6.975301 -0.209865 2.790642 -28.388256 0.613955 -54.482666 -46.819626 13.176122 -10.179537 -40.722107 18.192331 -27.695942 -8.903371 7.859488 -2.070436 -20.943953 -6.694089 -28.857576 3.356458 -5.664369 -166.351227 -70.714798 60.107258 6.996825 0.000000 0.000000 -18.332462 12.923700 -5.125381 15.212471 -6.428586 -0.433561 13.611595 2.328721 5.489282 -5.258473 -11.285510 -24.249664 57.715637 4.734636 -0.412670 23.422083 -1.952469 -4.545708 
0.000000 6.459362 0.000000 -90.001343 -0.002114 46.999653 -0.659064 -0.139722 -28.401102 -0.812227 0.188990 -21.020029 18.450157 -3.968375 -20.524691 -11.221601 7.400979 -0.206985 2.790642 -28.388258 0.613955 -54.482666 -46.819626 13.176121 -10.176681 -39.995098 18.188953 -27.695944 -8.903371 7.859488 -2.070436 -20.943953 -6.694089 -28.857573 3.356458 -5.664369 -166.351227 -70.714798 60.107269 6.996825 0.000000 0.000000 -18.401455 12.834018 -5.450514 15.212471 -6.428585 -0.433561 13.611596 2.328722 5.489283 -5.258473 -11.285510 -24.249668 57.715637 4.734636 -0.412670 23.422083 -1.952469 -4.545708 
0.000000 6.459362 0.000000 -90.001343 -0.002114 46.999653 -0.659064 -0.139722 -28.401102 -0.812227 0.188990 -21.020033 18.440817 -3.799264 -20.514153 -11.218408 7.826888 -0.204077 2.790642 -28.388258 0.613955 -54.482670 -46.819637 13.176123 -10.173795 -39.267078 18.185555 -27.695942 -8.903372 7.859488 -2.070436 -20.943954 -6.694089 -28.857576 3.356458 -5.664370 -166.351227 -70.714798 60.107269 6.996825 0.000000 0.000000 -18.469929 12.743904 -5.775588 15.212471 -6.428586 -0.433561 13.611595 2.328721 5.489282 -5.258474 -11.285511 -24.249666 57.715637 4.734636 -0.412670 23.422083 -1.952469 -4.545709 
0.000000 6.459362 0.000000 -90.001343 -0.002114 46.999653 -0.659064 -0.139722 -28.401102 -0.812227 0.188990 -21.020029 18.431519 -3.630138 -20.503647 -11.215190 8.253018 -0.201140 2.790642 -28.388258 0.613955 -54.482666 -46.819626 13.176121 -10.170882 -38.538113 18.182146 -27.695942 -8.903371 7.859488 -2.070436 -20.943953 -6.694089 -28.857573 3.356458 -5.664369 -166.351227 -70.714813 60.107269 6.996825 0.000000 0.000000 -18.537893 12.653368 -6.100602 15.212471 -6.428585 -0.433561 13.611595 2.328721 5.489282 -5.258474 -11.285511 -24.249666 57.715637 4.734636 -0.412670 23.422083 -1.952469 -4.545709 
